<?xml version="1.0" encoding="utf-8"?>
<!-- Generator: Adobe Illustrator 22.0.1, SVG Export Plug-In . SVG Version: 6.00 Build 0)  -->
<svg version="1.1" xmlns="http://www.w3.org/2000/svg" xmlns:xlink="http://www.w3.org/1999/xlink" x="0px" y="0px"
	 viewBox="0 0 170 170" style="enable-background:new 0 0 170 170;" xml:space="preserve">
<style type="text/css">
	.st0{fill:#FFFFFF;}
	.st1{fill:#F5D700;}
	.st2{fill:none;stroke:#FFFFFF;stroke-width:5;stroke-linejoin:round;stroke-miterlimit:10;}
</style>
<g id="Layer_1">
</g>
<g id="home">
	<g>
		<path class="st0" d="M126.1,67.3h-5c0-19.9-16.2-36.1-36.1-36.1S48.9,47.4,48.9,67.3h-5c0-22.7,18.4-41.1,41.1-41.1
			S126.1,44.7,126.1,67.3z"/>
		<path class="st0" d="M113.4,132.9l-2-4.6c5.9-2.6,9.7-8.5,9.7-14.9h5C126.1,121.9,121.1,129.5,113.4,132.9z"/>
		<path class="st0" d="M46.4,109.6c-5.5,0-10.1-4.5-10.1-10.1V81.6c0-5.5,4.5-10.1,10.1-10.1S56.5,76,56.5,81.6v17.9
			C56.5,105,52,109.6,46.4,109.6z M46.4,76.5c-2.8,0-5.1,2.3-5.1,5.1v17.9c0,2.8,2.3,5.1,5.1,5.1s5.1-2.3,5.1-5.1V81.6
			C51.5,78.8,49.2,76.5,46.4,76.5z"/>
		<path class="st0" d="M123.6,109.6c-5.5,0-10.1-4.5-10.1-10.1V81.6c0-5.5,4.5-10.1,10.1-10.1s10.1,4.5,10.1,10.1v17.9
			C133.7,105,129.1,109.6,123.6,109.6z M123.6,76.5c-2.8,0-5.1,2.3-5.1,5.1v17.9c0,2.8,2.3,5.1,5.1,5.1s5.1-2.3,5.1-5.1V81.6
			C128.7,78.8,126.4,76.5,123.6,76.5z"/>
		<circle class="st1" cx="99.6" cy="136.8" r="7"/>
	</g>
</g>
</svg>
