<?xml version="1.0" encoding="utf-8"?>
<!-- Generator: Adobe Illustrator 22.0.1, SVG Export Plug-In . SVG Version: 6.00 Build 0)  -->
<svg version="1.1" xmlns="http://www.w3.org/2000/svg" xmlns:xlink="http://www.w3.org/1999/xlink" x="0px" y="0px"
	 viewBox="0 0 170 170" style="enable-background:new 0 0 170 170;" xml:space="preserve">
<style type="text/css">
	.st0{fill:#FFFFFF;}
	.st1{fill:#F5D700;}
	.st2{fill:none;stroke:#FFFFFF;stroke-width:5;stroke-linejoin:round;stroke-miterlimit:10;}
</style>
<g id="Layer_1">
</g>
<g id="home">
	<g>
		<path class="st0" d="M93.4,103.4H80.3v-5h13.1c3.2,0,5.7-2.6,5.7-5.7v-0.3c0-3.2-2.6-5.7-5.7-5.7H76.6c-5.9,0-10.7-4.8-10.7-10.7
			s4.8-10.7,10.7-10.7h13.1v5H76.6c-3.2,0-5.7,2.6-5.7,5.7s2.6,5.7,5.7,5.7h16.8c5.9,0,10.7,4.8,10.7,10.7v0.3
			C104.1,98.5,99.3,103.4,93.4,103.4z"/>
		<g>
			<g>
				<rect x="82.5" y="52.8" class="st0" width="5" height="10.2"/>
			</g>
			<g>
				<rect x="82.5" y="105.5" class="st0" width="5" height="10.2"/>
			</g>
		</g>
		<g>
			<circle class="st1" cx="69" cy="100.9" r="7"/>
			<circle class="st1" cx="100.5" cy="67.6" r="7"/>
		</g>
		<path class="st0" d="M135.9,147.4H34.1c-1.4,0-2.5-1.1-2.5-2.5V25.1h5v117.3h96.9V25.1h5v119.8
			C138.4,146.3,137.3,147.4,135.9,147.4z"/>
		<rect x="46.6" y="22.6" class="st0" width="76.9" height="5"/>
		<path class="st0" d="M120.7,129.5H49.3c-1.4,0-2.5-1.1-2.5-2.5V34h5v90.5h66.4V34h5v93C123.2,128.3,122.1,129.5,120.7,129.5z"/>
		<path class="st0" d="M106,44.6H64c-1.4,0-2.5-1.1-2.5-2.5V34h5v5.6h37V34h5v8.1C108.5,43.5,107.4,44.6,106,44.6z"/>
	</g>
</g>
</svg>
