<?xml version="1.0" encoding="utf-8"?>
<!-- Generator: Adobe Illustrator 22.0.1, SVG Export Plug-In . SVG Version: 6.00 Build 0)  -->
<svg version="1.1" xmlns="http://www.w3.org/2000/svg" xmlns:xlink="http://www.w3.org/1999/xlink" x="0px" y="0px"
	 viewBox="0 0 170 170" style="enable-background:new 0 0 170 170;" xml:space="preserve">
<style type="text/css">
	.st0{fill:#FFFFFF;}
	.st1{fill:#F5D700;}
	.st2{fill:none;stroke:#FFFFFF;stroke-width:5;stroke-linejoin:round;stroke-miterlimit:10;}
</style>
<g id="Layer_1">
</g>
<g id="home">
	<g>
		<g>
			<path class="st0" d="M119.8,147.9l-4.9-0.9c0,0,0,0,0,0l0,0c0,0,0,0,0,0l0.3-7.1c0.1-1.3,0.6-2.5,1.5-3.5l16.3-17.3
				c0,0,0.1-0.1,0.1-0.1c2.5-2.4,3.8-4.7,4.2-7.2l0.1-0.9l2.7-23.6c0.1-0.5-0.3-0.9-0.8-1.2c-1.1-0.5-2.6,0-2.7,0.9L134,98.7l-4.9-1
				l2.3-11.5c0.6-3,3.4-5.2,6.7-5.2c1.1,0,2.1,0.2,3.1,0.7c2.6,1.2,4,3.7,3.7,6.3l-2.8,24.6c-0.5,3.7-2.3,6.9-5.6,10.1l-16.2,17.2
				c-0.1,0.1-0.1,0.2-0.1,0.3l-0.3,7.1C119.8,147.5,119.8,147.7,119.8,147.9z"/>
			<path class="st0" d="M92.3,147.7l0-0.2l-0.5-9.4c-0.4-9.4,4.4-18.3,12.9-23.7c0,0,0.1,0,0.1-0.1c0,0,0.1,0,0.1-0.1
				c0.5-0.3,1.5-1.2,2.1-1.8l10.6-12.1c1.4-1.8,3.6-2.9,6.1-2.9c1.3,0,2.6,0.3,3.8,0.9c1.8,0.9,3.1,2.5,3.6,4.3
				c0.5,1.8,0.2,3.6-0.8,5.1c0,0,0,0.1-0.1,0.1l-10.3,14.8l-4.1-2.9l10.3-14.7c0.3-0.4,0.2-0.9,0.2-1.1c-0.1-0.5-0.5-0.9-1-1.2
				c-1.2-0.6-2.9-0.3-3.6,0.6c0,0.1-0.1,0.1-0.2,0.2l-10.6,12.2c-0.8,0.9-2.2,2.2-3.4,2.9c-7,4.5-11,11.7-10.6,19.3l0.5,9.5
				L92.3,147.7z"/>
		</g>
		<g>
			<path class="st0" d="M50.2,147.9c0-0.2-0.1-0.5-0.1-0.7l-0.3-7c0-0.1-0.1-0.2-0.1-0.3l-16.2-17.2c-3.3-3.2-5.1-6.4-5.6-10l-0.1-1
				L25.1,88c-0.3-2.6,1.1-5.1,3.7-6.3c1-0.5,2-0.7,3.1-0.7c3.3,0,6.1,2.2,6.7,5.2l2.3,11.4l-4.9,1l-2.3-11.5c-0.2-1-1.6-1.5-2.7-1
				C30.3,86.5,30,87,30,87.5l2.8,24.5c0.4,2.4,1.7,4.7,4.2,7.2c0,0,0.1,0.1,0.1,0.1l16.3,17.3c0.9,1,1.4,2.2,1.5,3.5l0.3,7.1
				c0,0,0,0,0,0c0,0,0,0,0-0.1L50.2,147.9z"/>
			<path class="st0" d="M77.7,147.7l-5-0.3l0,0h0l0-0.1l0.4-9.4c0.4-7.6-3.6-14.8-10.6-19.3c-1.2-0.7-2.6-2-3.4-2.9l-10.6-12.1
				c-0.1-0.1-0.1-0.1-0.1-0.2c-0.6-0.9-2.4-1.2-3.6-0.6c-0.5,0.3-0.9,0.7-1,1.2c-0.1,0.3-0.1,0.7,0.2,1.1l10.3,14.7l-4.1,2.9
				l-10.3-14.8c0,0,0-0.1-0.1-0.1c-1-1.6-1.3-3.4-0.8-5.1c0.5-1.8,1.8-3.4,3.6-4.3c1.1-0.6,2.5-0.9,3.8-0.9c2.5,0,4.7,1.1,6.1,2.9
				L63,112.4c0.6,0.7,1.6,1.5,2.1,1.8c0,0,0.1,0.1,0.1,0.1c8.6,5.5,13.4,14.4,13,23.8l-0.5,9.5C77.7,147.6,77.7,147.7,77.7,147.7z"
				/>
		</g>
		<path class="st0" d="M117.8,91H55.6c-1.4,0-2.5-1.1-2.5-2.5V26.4h5V86h57.1V41.5h5v47.1C120.3,89.9,119.1,91,117.8,91z"/>
		<rect x="62.9" y="26.6" class="st0" width="42.4" height="5"/>
		<path class="st0" d="M93,60.8H80.4c-1.4,0-2.5-1.1-2.5-2.5V29.1c0-1.4,1.1-2.5,2.5-2.5H93c1.4,0,2.5,1.1,2.5,2.5v29.2
			C95.5,59.7,94.4,60.8,93,60.8z M82.9,55.8h7.6V31.6h-7.6V55.8z"/>
		<circle class="st1" cx="117" cy="29.1" r="7"/>
	</g>
</g>
</svg>
