<?xml version="1.0" encoding="utf-8"?>
<!-- Generator: Adobe Illustrator 22.0.1, SVG Export Plug-In . SVG Version: 6.00 Build 0)  -->
<svg version="1.1" xmlns="http://www.w3.org/2000/svg" xmlns:xlink="http://www.w3.org/1999/xlink" x="0px" y="0px"
	 viewBox="0 0 170 170" style="enable-background:new 0 0 170 170;" xml:space="preserve">
<style type="text/css">
	.st0{fill:#FFFFFF;}
	.st1{fill:#F5D700;}
	.st2{fill:none;stroke:#FFFFFF;stroke-width:5;stroke-linejoin:round;stroke-miterlimit:10;}
</style>
<g id="Layer_1">
</g>
<g id="home">
	<g>
		<g>
			<path class="st0" d="M89.9,79.5c-13.8,0-25-11.2-25-25v-6.7h5v6.7c0,11,9,20,20,20s20-9,20-20v-6.7h5v6.7
				C114.9,68.3,103.7,79.5,89.9,79.5z"/>
			<path class="st0" d="M112.4,41.6h-46c-1.1,0-2-0.7-2.4-1.7l-4.7-14.4c-0.3-0.8-0.1-1.7,0.4-2.4c0.5-0.7,1.4-1,2.2-0.9l50.7,6.2
				c1.3,0.2,2.2,1.2,2.2,2.5v8.2C114.9,40.5,113.7,41.6,112.4,41.6z M68.2,36.6h41.7v-3.5l-44.6-5.5L68.2,36.6z"/>
			<g>
				
					<rect x="72.1" y="107.7" transform="matrix(0.5956 -0.8033 0.8033 0.5956 -54.2598 112.6349)" class="st0" width="25.2" height="5"/>
				<path class="st0" d="M54.7,100h-5c0-7.9,6.9-14.4,15.4-14.4h36v5h-36C59.4,90.7,54.7,94.9,54.7,100z"/>
				<path class="st0" d="M92.9,121.8l-4-3l23.8-32.1c0.5-0.6,1.2-1,2-1c8.5,0,15.4,6.4,15.4,14.4v10.6h-5V100c0-4.8-4-8.8-9.2-9.3
					L92.9,121.8z"/>
			</g>
		</g>
		<rect x="84.7" y="134.9" class="st0" width="55.6" height="5"/>
		<circle class="st1" cx="127.6" cy="123.2" r="7.2"/>
		<g>
			<path class="st0" d="M72.2,147.8h-40c-1.4,0-2.5-1.1-2.5-2.5V140c0-1.2,0.9-2.2,2-2.5l8.1-1.5c2.7-0.5,4.7-2.9,4.7-5.6v-0.9
				c0-1.3-0.5-2.7-1.5-3.8c-1.8-2.1-2.8-4.9-2.8-7.7c0-3.3,1.4-6.5,3.8-8.7c2.4-2.3,5.6-3.4,8.9-3.2c5.9,0.4,10.7,5.1,11.2,11.1
				c0.2,3.2-0.8,6.3-2.9,8.7c-0.8,1-1.3,2.3-1.3,3.6v0.9c0,2.7,2,5.1,4.7,5.6l8.1,1.5c1.2,0.2,2,1.3,2,2.5v5.3
				C74.7,146.7,73.6,147.8,72.2,147.8z M34.7,142.8h35v-0.8l-6.1-1.1c-5.1-1-8.7-5.4-8.7-10.5v-0.9c0-2.6,0.9-5.1,2.5-6.9
				c1.2-1.4,1.8-3.2,1.7-5.1c-0.2-3.5-3-6.2-6.5-6.4c-2-0.1-3.8,0.5-5.2,1.9c-1.4,1.3-2.2,3.1-2.2,5.1c0,1.6,0.6,3.2,1.6,4.5
				c1.7,2,2.6,4.5,2.6,7v0.9c0,5.1-3.7,9.6-8.7,10.5l-6.1,1.1V142.8z"/>
		</g>
	</g>
</g>
</svg>
