<?xml version="1.0" encoding="utf-8"?>
<!-- Generator: Adobe Illustrator 22.0.1, SVG Export Plug-In . SVG Version: 6.00 Build 0)  -->
<svg version="1.1" xmlns="http://www.w3.org/2000/svg" xmlns:xlink="http://www.w3.org/1999/xlink" x="0px" y="0px"
	 viewBox="0 0 170 170" style="enable-background:new 0 0 170 170;" xml:space="preserve">
<style type="text/css">
	.st0{fill:#FFFFFF;}
	.st1{fill:#F5D700;}
	.st2{fill:none;stroke:#FFFFFF;stroke-width:5;stroke-linejoin:round;stroke-miterlimit:10;}
</style>
<g id="Layer_1">
</g>
<g id="home">
	<g>
		<rect x="3.4" y="131.6" class="st0" width="82.8" height="5"/>
		<path class="st0" d="M45.7,118.3c-1.3,0-2.5-0.5-3.4-1.4L20.2,95.5c-1-1-1.5-2.3-1.5-3.7c0.1-1.4,0.7-2.7,1.8-3.6l4.6-3.8
			c1.7-1.4,4-1.5,5.8-0.3l16.8,10.9c4.5-3.2,19.1-13.4,29.4-19.3L52.7,42c-0.4-0.6-0.6-1.3-0.4-2s0.6-1.3,1.3-1.6
			c0.9-0.5,1.8-1,2.7-1.5c2.2-1.2,4.2-2.3,6.5-3.1c2.2-0.8,5,0,6.8,1c8.5,5.1,17.4,10.5,26.6,16.1l-2.6,4.3
			c-9.1-5.6-18.1-11-26.5-16c-0.9-0.5-2.2-0.7-2.5-0.6c-1.9,0.7-3.7,1.6-5.8,2.8c-0.1,0-0.2,0.1-0.3,0.1l24.3,33.5
			c0.4,0.6,0.6,1.3,0.4,2c-0.2,0.7-0.6,1.3-1.3,1.6c-11.7,6.3-32.6,21.2-32.8,21.4c-0.8,0.6-2,0.6-2.8,0.1L28.2,88.2L23.7,92
			l22,21.4L153.1,67c3.8-1.5,6.5-4.1,7.8-7.3c1.1-2.9,1-6.1-0.4-9c-1.4-2.9-3.6-4.9-6.4-5.9c-3.2-1.1-6.9-0.7-10.5,1.2l-3.7,2
			c-5.6,2.9-11.2,5.9-16.7,8.9l-2.4-4.4c5.6-3,11.2-5.9,16.8-8.9l3.7-2c4.7-2.5,9.8-3,14.4-1.5c4.1,1.4,7.5,4.4,9.4,8.5
			c2,4.2,2.2,8.8,0.5,13c-1.8,4.5-5.5,8.1-10.5,10.1L47.6,117.9C47,118.2,46.4,118.3,45.7,118.3z"/>
		<path class="st1" d="M113.8,61.3c-0.9,3.8-4.7,6.1-8.4,5.2c-3.8-0.9-6.1-4.7-5.2-8.4c0.9-3.8,4.7-6.1,8.4-5.2
			C112.4,53.8,114.7,57.6,113.8,61.3z"/>
	</g>
</g>
</svg>
