<?xml version="1.0" encoding="utf-8"?>
<!-- Generator: Adobe Illustrator 22.0.1, SVG Export Plug-In . SVG Version: 6.00 Build 0)  -->
<svg version="1.1" xmlns="http://www.w3.org/2000/svg" xmlns:xlink="http://www.w3.org/1999/xlink" x="0px" y="0px"
	 viewBox="0 0 100 80" style="enable-background:new 0 0 100 80;" xml:space="preserve">
<style type="text/css">
	.st0{fill:#005072;}
	.st1{fill:#FFFFFF;}
	.st2{fill:#F5D700;}
</style>
<g id="Layer_1">
</g>
<g id="home">
	<g>
		<g>
			<polygon class="st1" points="89.8,43.2 65.1,22.8 65.1,36.9 51.3,36.9 51.3,49.4 65.1,49.4 65.1,63.5 			"/>
			<path class="st0" d="M91.3,43.2c0,0.4-0.2,0.9-0.5,1.2L66.1,64.6c-0.4,0.4-1.1,0.4-1.6,0.2c-0.5-0.2-0.9-0.8-0.9-1.4V50.9H51.3
				c-0.8,0-1.5-0.7-1.5-1.5V36.9c0-0.8,0.7-1.5,1.5-1.5h12.3V22.8c0-0.6,0.3-1.1,0.9-1.4c0.5-0.2,1.1-0.2,1.6,0.2L90.8,42
				C91.1,42.3,91.3,42.7,91.3,43.2z M66.6,60.3l20.8-17.1L66.6,26v10.9c0,0.8-0.7,1.5-1.5,1.5H52.8v9.5h12.3c0.8,0,1.5,0.7,1.5,1.5
				V60.3z"/>
		</g>
		<path class="st0" d="M60.4,13.2v9h-3v-7.5H18v57h39.4v-7.5h3v9c0,0.8-0.7,1.5-1.5,1.5H16.5c-0.8,0-1.5-0.7-1.5-1.5v-60
			c0-0.8,0.7-1.5,1.5-1.5h42.4C59.7,11.7,60.4,12.3,60.4,13.2z"/>
		<g>
			<path class="st0" d="M43.2,24.8C43.2,24.9,43.2,24.9,43.2,24.8l-1.6,24.3l-3-0.2l1.5-22.6h-4.9L36.7,49l-3,0.2l-1.6-24.2
				c0-0.4,0.1-0.8,0.4-1.1c0.3-0.3,0.7-0.5,1.1-0.5h8.1c0.4,0,0.8,0.2,1.1,0.5C43.1,24.1,43.2,24.5,43.2,24.8z"/>
			<path class="st0" d="M42.6,54.5v6.9c0,0.8-0.7,1.5-1.5,1.5h-6.9c-0.8,0-1.5-0.7-1.5-1.5v-6.9c0-0.8,0.7-1.5,1.5-1.5h6.9
				C41.9,53,42.6,53.7,42.6,54.5z M39.6,60V56h-3.9V60H39.6z"/>
		</g>
		<g>
			<circle class="st2" cx="16.5" cy="13.2" r="4.8"/>
			<path class="st1" d="M11.7,13.2c0-2.7,2.1-4.8,4.8-4.8c2.7,0,4.8,2.1,4.8,4.8S19.1,18,16.5,18C13.8,18,11.7,15.8,11.7,13.2
				 M8.7,13.2c0,4.3,3.5,7.8,7.8,7.8s7.8-3.5,7.8-7.8s-3.5-7.8-7.8-7.8S8.7,8.9,8.7,13.2L8.7,13.2z"/>
		</g>
	</g>
</g>
</svg>
