<?xml version="1.0" encoding="utf-8"?>
<!-- Generator: Adobe Illustrator 22.0.1, SVG Export Plug-In . SVG Version: 6.00 Build 0)  -->
<svg version="1.1" xmlns="http://www.w3.org/2000/svg" xmlns:xlink="http://www.w3.org/1999/xlink" x="0px" y="0px"
	 viewBox="0 0 100 80" style="enable-background:new 0 0 100 80;" xml:space="preserve">
<style type="text/css">
	.st0{fill:#005072;}
	.st1{fill:#FFFFFF;}
	.st2{fill:#F5D700;}
</style>
<g id="Layer_1">
</g>
<g id="home">
	<g>
		<path class="st0" d="M14.6,64h-3V21c0-2.6,2.2-4.7,4.9-4.7h59.6c2.7,0,4.9,2.1,4.9,4.7v22.3h-3V21c0-0.9-0.8-1.7-1.9-1.7H16.5
			c-1,0-1.9,0.8-1.9,1.7V64z"/>
		<rect x="19.6" y="26.6" class="st0" width="53.5" height="3"/>
		<circle class="st0" cx="21.9" cy="23.4" r="1.6"/>
		<path class="st0" d="M29.2,23.4c0,0.9-0.7,1.6-1.6,1.6c-0.9,0-1.6-0.7-1.6-1.6c0-0.9,0.7-1.6,1.6-1.6
			C28.5,21.7,29.2,22.5,29.2,23.4z"/>
		<path class="st0" d="M34.9,23.4c0,0.9-0.7,1.6-1.6,1.6c-0.9,0-1.6-0.7-1.6-1.6c0-0.9,0.7-1.6,1.6-1.6
			C34.2,21.7,34.9,22.5,34.9,23.4z"/>
		<path class="st0" d="M56.4,51.6H20.9c-0.8,0-1.5-0.7-1.5-1.5V36.6c0-0.8,0.7-1.5,1.5-1.5h50.9c0.8,0,1.5,0.7,1.5,1.5v3.8h-3v-2.3
			H22.4v10.5h34V51.6z"/>
		<g>
			<polygon class="st1" points="62.5,43.3 67.5,61.7 72.1,57 82.7,67.6 86.9,63.5 76.3,52.9 80.9,48.2 			"/>
			<path class="st0" d="M82.7,69.1c-0.4,0-0.8-0.2-1.1-0.4l-9.5-9.5l-3.6,3.6c-0.4,0.4-0.9,0.5-1.4,0.4c-0.5-0.1-0.9-0.5-1.1-1.1
				l-4.9-18.4c-0.1-0.5,0-1.1,0.4-1.4c0.4-0.4,0.9-0.5,1.4-0.4l18.4,4.9c0.5,0.1,0.9,0.5,1.1,1.1s0,1.1-0.4,1.4l-3.6,3.6l9.5,9.5
				c0.6,0.6,0.6,1.5,0,2.1l-4.1,4.1C83.5,69,83.1,69.1,82.7,69.1z M72.1,55.5c0.4,0,0.8,0.1,1.1,0.4l9.5,9.5l2-2l-9.5-9.5
				c-0.3-0.3-0.4-0.7-0.4-1.1s0.2-0.8,0.4-1.1L78,49l-13.4-3.6l3.6,13.4l2.8-2.8C71.4,55.7,71.7,55.5,72.1,55.5z"/>
		</g>
		<g>
			<circle class="st2" cx="76.9" cy="18.7" r="4.8"/>
			<path class="st1" d="M76.9,13.9c2.7,0,4.8,2.1,4.8,4.8s-2.1,4.8-4.8,4.8c-2.7,0-4.8-2.1-4.8-4.8S74.3,13.9,76.9,13.9 M76.9,10.9
				c-4.3,0-7.8,3.5-7.8,7.8c0,4.3,3.5,7.8,7.8,7.8s7.8-3.5,7.8-7.8C84.7,14.4,81.2,10.9,76.9,10.9L76.9,10.9z"/>
		</g>
	</g>
</g>
</svg>
