<?xml version="1.0" encoding="utf-8"?>
<!-- Generator: Adobe Illustrator 22.0.1, SVG Export Plug-In . SVG Version: 6.00 Build 0)  -->
<svg version="1.1" xmlns="http://www.w3.org/2000/svg" xmlns:xlink="http://www.w3.org/1999/xlink" x="0px" y="0px"
	 viewBox="0 0 100 80" style="enable-background:new 0 0 100 80;" xml:space="preserve">
<style type="text/css">
	.st0{fill:#005072;}
	.st1{fill:#FFFFFF;}
	.st2{fill:#F5D700;}
</style>
<g id="Layer_1">
</g>
<g id="home">
	<g>
		<g>
			<polygon class="st1" points="50.1,43.1 74.7,63.4 74.7,49.4 88.5,49.4 88.5,36.9 74.7,36.9 74.7,22.9 			"/>
			<path class="st0" d="M74.7,64.9c-0.3,0-0.7-0.1-1-0.3L49.1,44.3c-0.3-0.3-0.5-0.7-0.5-1.2s0.2-0.9,0.5-1.2l24.7-20.3
				c0.4-0.4,1.1-0.4,1.6-0.2c0.5,0.2,0.9,0.8,0.9,1.4v12.5h12.3c0.8,0,1.5,0.7,1.5,1.5v12.5c0,0.8-0.7,1.5-1.5,1.5H76.2v12.5
				c0,0.6-0.3,1.1-0.9,1.4C75.2,64.9,74.9,64.9,74.7,64.9z M52.4,43.1l20.8,17.1V49.4c0-0.8,0.7-1.5,1.5-1.5H87v-9.5H74.7
				c-0.8,0-1.5-0.7-1.5-1.5V26L52.4,43.1z"/>
		</g>
		<path class="st0" d="M60.1,74.6H17.8c-0.8,0-1.5-0.7-1.5-1.5V13.2c0-0.8,0.7-1.5,1.5-1.5l42.3,0c0.8,0,1.5,0.7,1.5,1.5l0,9h-3
			v-7.5l-39.4,0l0,56.9l39.4,0v-7.5h3v9C61.6,73.9,61,74.6,60.1,74.6z"/>
		<g>
			<path class="st0" d="M42.9,49.2l-3-0.2l1.5-22.6h-4.9L38,49l-3,0.2L33.4,25c0-0.4,0.1-0.8,0.4-1.1c0.3-0.3,0.7-0.5,1.1-0.5H43
				c0.4,0,0.8,0.2,1.1,0.5c0.3,0.3,0.4,0.7,0.4,1.1L42.9,49.2z"/>
			<path class="st0" d="M42.4,62.9h-6.9c-0.8,0-1.5-0.7-1.5-1.5v-6.9c0-0.8,0.7-1.5,1.5-1.5h6.9c0.8,0,1.5,0.7,1.5,1.5v6.9
				C43.9,62.3,43.2,62.9,42.4,62.9z M36.9,59.9h3.9V56h-3.9V59.9z"/>
		</g>
		<g>
			<circle class="st2" cx="17.8" cy="13.2" r="4.8"/>
			<path class="st1" d="M17.8,8.4c2.6,0,4.8,2.1,4.8,4.8c0,2.6-2.1,4.8-4.8,4.8c-2.6,0-4.8-2.1-4.8-4.8C13,10.6,15.1,8.4,17.8,8.4
				 M17.8,5.4c-4.3,0-7.8,3.5-7.8,7.8c0,4.3,3.5,7.8,7.8,7.8s7.8-3.5,7.8-7.8C25.6,8.9,22.1,5.4,17.8,5.4L17.8,5.4z"/>
		</g>
	</g>
</g>
</svg>
