<?xml version="1.0" encoding="utf-8"?>
<!-- Generator: Adobe Illustrator 22.0.1, SVG Export Plug-In . SVG Version: 6.00 Build 0)  -->
<svg version="1.1" xmlns="http://www.w3.org/2000/svg" xmlns:xlink="http://www.w3.org/1999/xlink" x="0px" y="0px"
	 viewBox="0 0 100 80" style="enable-background:new 0 0 100 80;" xml:space="preserve">
<style type="text/css">
	.st0{fill:#005072;}
	.st1{fill:#FFFFFF;}
	.st2{fill:#F5D700;}
</style>
<g id="Layer_1">
</g>
<g id="home">
	<g>
		<path class="st0" d="M89.3,71.5H72.6v-3h15.2v-47L63.9,9.4L38.5,21.9l-1.3-2.7L63.3,6.4c0.4-0.2,0.9-0.2,1.3,0L90,19.2
			c0.5,0.3,0.8,0.8,0.8,1.3V70C90.8,70.8,90.1,71.5,89.3,71.5z"/>
		<g>
			<rect x="16.9" y="38.3" class="st0" width="30.4" height="3"/>
			<rect x="9.2" y="49.2" class="st0" width="38.1" height="3"/>
			<g>
				<path class="st0" d="M27.5,73.8c-4,0-7.3-2.9-7.3-6.4h3c0,1.9,1.9,3.4,4.3,3.4c2.4,0,4.3-1.5,4.3-3.4h3
					C34.7,70.9,31.5,73.8,27.5,73.8z"/>
				<path class="st0" d="M55.7,73.8c-4,0-7.3-2.9-7.3-6.4h3c0,1.9,1.9,3.4,4.3,3.4c2.4,0,4.3-1.5,4.3-3.4h3
					C63,70.9,59.7,73.8,55.7,73.8z"/>
			</g>
			<path class="st0" d="M56.9,58.6h-3V29.5H27.5v-3h27.9c0.8,0,1.5,0.7,1.5,1.5V58.6z"/>
			<path class="st0" d="M69.7,64.8H18.4v-3h49.8V46.7l-4.7-6.2h-4.3v-3h5c0.5,0,0.9,0.2,1.2,0.6l5.4,7.2c0.2,0.3,0.3,0.6,0.3,0.9
				v17.1C71.2,64.1,70.6,64.8,69.7,64.8z"/>
		</g>
		<g>
			<g>
				<circle class="st2" cx="54.8" cy="28" r="4.8"/>
				<path class="st1" d="M54.8,23.2c2.7,0,4.8,2.1,4.8,4.8c0,2.7-2.1,4.8-4.8,4.8S50,30.6,50,28C50,25.3,52.2,23.2,54.8,23.2
					 M54.8,20.2c-4.3,0-7.8,3.5-7.8,7.8c0,4.3,3.5,7.8,7.8,7.8s7.8-3.5,7.8-7.8C62.6,23.7,59.1,20.2,54.8,20.2L54.8,20.2z"/>
			</g>
		</g>
	</g>
</g>
</svg>
