<?xml version="1.0" encoding="utf-8"?>
<!-- Generator: Adobe Illustrator 22.0.1, SVG Export Plug-In . SVG Version: 6.00 Build 0)  -->
<svg version="1.1" xmlns="http://www.w3.org/2000/svg" xmlns:xlink="http://www.w3.org/1999/xlink" x="0px" y="0px"
	 viewBox="0 0 100 80" style="enable-background:new 0 0 100 80;" xml:space="preserve">
<style type="text/css">
	.st0{fill:#005072;}
	.st1{fill:#FFFFFF;}
	.st2{fill:#F5D700;}
</style>
<g id="Layer_1">
</g>
<g id="home">
	<g>
		<g>
			<path class="st0" d="M85.2,67.5h-64c-0.8,0-1.5-0.7-1.5-1.5V30.8h3v33.7h61V30.8h3V66C86.7,66.8,86,67.5,85.2,67.5z"/>
			<path class="st0" d="M85.2,28.5h-64c-0.8,0-1.5-0.7-1.5-1.5v-4.9c0-3.2,2.6-5.8,5.8-5.8h7.8v3h-7.8c-1.5,0-2.8,1.2-2.8,2.8v3.4
				h61v-3.4c0-1.5-1.2-2.8-2.8-2.8h-7.8v-3h7.8c3.2,0,5.8,2.6,5.8,5.8V27C86.7,27.9,86,28.5,85.2,28.5z"/>
			<rect x="43.4" y="16.4" class="st0" width="19.5" height="3"/>
			<g>
				<g>
					<path class="st1" d="M38.3,21.7L38.3,21.7c-1.2,0-2.2-1-2.2-2.2v-3.2c0-1.2,1-2.2,2.2-2.2l0,0c1.2,0,2.2,1,2.2,2.2v3.2
						C40.5,20.7,39.5,21.7,38.3,21.7z"/>
					<path class="st0" d="M38.3,23.2c-2.1,0-3.7-1.7-3.7-3.7v-3.2c0-2.1,1.7-3.7,3.7-3.7c2.1,0,3.7,1.7,3.7,3.7v3.2
						C42,21.5,40.3,23.2,38.3,23.2z M38.3,15.5c-0.4,0-0.7,0.3-0.7,0.7v3.2c0,0.4,0.3,0.7,0.7,0.7c0.4,0,0.7-0.3,0.7-0.7v-3.2
						C39,15.8,38.7,15.5,38.3,15.5z"/>
				</g>
				<g>
					<path class="st1" d="M68,21.7L68,21.7c-1.2,0-2.2-1-2.2-2.2v-3.2c0-1.2,1-2.2,2.2-2.2l0,0c1.2,0,2.2,1,2.2,2.2v3.2
						C70.3,20.7,69.3,21.7,68,21.7z"/>
					<path class="st0" d="M68,23.2c-2.1,0-3.7-1.7-3.7-3.7v-3.2c0-2.1,1.7-3.7,3.7-3.7c2.1,0,3.7,1.7,3.7,3.7v3.2
						C71.8,21.5,70.1,23.2,68,23.2z M68,15.5c-0.4,0-0.7,0.3-0.7,0.7v3.2c0,0.4,0.3,0.7,0.7,0.7c0.4,0,0.7-0.3,0.7-0.7v-3.2
						C68.8,15.8,68.4,15.5,68,15.5z"/>
				</g>
			</g>
			<rect x="28.3" y="39.2" class="st0" width="49.6" height="3"/>
			<rect x="28.3" y="51" class="st0" width="49.6" height="3"/>
			<g>
				<rect x="41.4" y="32.6" class="st0" width="3" height="28.1"/>
				<rect x="61.9" y="32.6" class="st0" width="3" height="28.1"/>
			</g>
		</g>
		<g>
			<g>
				<circle class="st2" cx="21.1" cy="29.1" r="4.8"/>
				<path class="st1" d="M21.1,24.3c2.7,0,4.8,2.1,4.8,4.8c0,2.7-2.1,4.8-4.8,4.8s-4.8-2.1-4.8-4.8C16.3,26.4,18.5,24.3,21.1,24.3
					 M21.1,21.3c-4.3,0-7.8,3.5-7.8,7.8c0,4.3,3.5,7.8,7.8,7.8s7.8-3.5,7.8-7.8C28.9,24.8,25.4,21.3,21.1,21.3L21.1,21.3z"/>
			</g>
		</g>
	</g>
</g>
</svg>
