<?xml version="1.0" encoding="utf-8"?>
<!-- Generator: Adobe Illustrator 22.0.1, SVG Export Plug-In . SVG Version: 6.00 Build 0)  -->
<svg version="1.1" xmlns="http://www.w3.org/2000/svg" xmlns:xlink="http://www.w3.org/1999/xlink" x="0px" y="0px"
	 viewBox="0 0 100 80" style="enable-background:new 0 0 100 80;" xml:space="preserve">
<style type="text/css">
	.st0{fill:#005072;}
	.st1{fill:#FFFFFF;}
	.st2{fill:#F5D700;}
</style>
<g id="Layer_1">
</g>
<g id="home">
	<g>
		<g>
			<path class="st0" d="M52.2,58.8H27.4c-0.8,0-1.5-0.7-1.5-1.5V34.8h3v21h21.9v-21h3v22.5C53.7,58.1,53.1,58.8,52.2,58.8z"/>
			<rect x="31.9" y="34.8" class="st0" width="15.7" height="3"/>
			<path class="st0" d="M42.3,47.6h-5c-0.8,0-1.5-0.7-1.5-1.5v-9.8h3v8.3h2v-8.3h3v9.8C43.8,46.9,43.1,47.6,42.3,47.6z"/>
			<path class="st0" d="M82.1,58.8H57.2c-0.8,0-1.5-0.7-1.5-1.5V34.8h3v21h21.9v-21h3v22.5C83.6,58.1,82.9,58.8,82.1,58.8z"/>
			<rect x="61.8" y="34.8" class="st0" width="15.7" height="3"/>
			<path class="st0" d="M72.1,47.6h-5c-0.8,0-1.5-0.7-1.5-1.5v-9.8h3v8.3h2v-8.3h3v9.8C73.6,46.9,73,47.6,72.1,47.6z"/>
		</g>
		<g>
			<path class="st0" d="M67.2,30.7H42.3c-0.8,0-1.5-0.7-1.5-1.5V6.7h3v21h21.9v-21h3v22.5C68.7,30.1,68,30.7,67.2,30.7z"/>
			<rect x="46.9" y="6.7" class="st0" width="17" height="3"/>
			<path class="st0" d="M57.2,19.5h-5c-0.8,0-1.5-0.7-1.5-1.5V8.2h3v8.3h2V8.2h3V18C58.7,18.8,58,19.5,57.2,19.5z"/>
		</g>
		<path class="st0" d="M88.7,64.3h-69c-0.8,0-1.5-0.7-1.5-1.5V15.9l-6.8-3.7l1.4-2.6l7.6,4.1c0.5,0.3,0.8,0.8,0.8,1.3v46.3h67.5
			V64.3z"/>
		<g>
			<g>
				<circle class="st2" cx="54.7" cy="39.1" r="4.8"/>
				<path class="st1" d="M54.7,34.3c2.7,0,4.8,2.1,4.8,4.8c0,2.7-2.1,4.8-4.8,4.8s-4.8-2.1-4.8-4.8C49.9,36.4,52.1,34.3,54.7,34.3
					 M54.7,31.3c-4.3,0-7.8,3.5-7.8,7.8s3.5,7.8,7.8,7.8s7.8-3.5,7.8-7.8S59,31.3,54.7,31.3L54.7,31.3z"/>
			</g>
		</g>
		<path class="st0" d="M35.7,73.3c-3.8,0-6.9-3.1-6.9-6.9h3c0,2.1,1.7,3.9,3.9,3.9s3.9-1.7,3.9-3.9h3C42.6,70.2,39.5,73.3,35.7,73.3
			z"/>
		<path class="st0" d="M73.9,73.3c-3.8,0-6.9-3.1-6.9-6.9h3c0,2.1,1.7,3.9,3.9,3.9s3.9-1.7,3.9-3.9h3C80.8,70.2,77.7,73.3,73.9,73.3
			z"/>
	</g>
</g>
</svg>
