<?xml version="1.0" encoding="utf-8"?>
<!-- Generator: Adobe Illustrator 22.0.1, SVG Export Plug-In . SVG Version: 6.00 Build 0)  -->
<svg version="1.1" xmlns="http://www.w3.org/2000/svg" xmlns:xlink="http://www.w3.org/1999/xlink" x="0px" y="0px"
	 viewBox="0 0 100 80" style="enable-background:new 0 0 100 80;" xml:space="preserve">
<style type="text/css">
	.st0{fill:#005072;}
	.st1{fill:#FFFFFF;}
	.st2{fill:#F5D700;}
</style>
<g id="Layer_1">
</g>
<g id="home">
	<g>
		<g>
			<path class="st0" d="M76.9,67.8h-68c-0.8,0-1.5-0.7-1.5-1.5v-40h3v38.5h65V47.2h3v19.2C78.4,67.2,77.7,67.8,76.9,67.8z"/>
			<rect x="15.1" y="26.2" class="st0" width="35.2" height="3"/>
		</g>
		<g>
			<rect x="17.9" y="33.4" class="st0" width="3" height="27.5"/>
			<rect x="27.3" y="33.4" class="st0" width="3" height="27.5"/>
			<rect x="36.7" y="33.4" class="st0" width="3" height="27.5"/>
			<rect x="46.1" y="33.4" class="st0" width="3" height="27.5"/>
			<rect x="55.5" y="42.5" class="st0" width="3" height="18.4"/>
			<rect x="64.9" y="48.3" class="st0" width="3" height="12.6"/>
		</g>
		<g>
			<g>
				
					<rect x="81.2" y="30.3" transform="matrix(0.7071 -0.7071 0.7071 0.7071 -5.4803 71.8627)" class="st1" width="5.7" height="24.4"/>
				<path class="st0" d="M90.6,54.7c-0.4,0-0.8-0.2-1.1-0.4L72.3,37c-0.3-0.3-0.4-0.7-0.4-1.1s0.2-0.8,0.4-1.1l4-4
					c0.6-0.6,1.5-0.6,2.1,0l17.2,17.2c0.6,0.6,0.6,1.5,0,2.1l-4,4C91.4,54.5,91,54.7,90.6,54.7z M75.5,35.9l15.1,15.1l1.9-1.9
					L77.4,34L75.5,35.9z"/>
			</g>
			<g>
				<path class="st1" d="M79.4,17.8c5.6,5.6,5.6,14.6,0,20.1c-5.6,5.6-14.6,5.6-20.1,0c-5.6-5.6-5.6-14.6,0-20.1
					S73.8,12.3,79.4,17.8z"/>
				<path class="st0" d="M69.3,43.6c-4,0-8.1-1.5-11.1-4.6c-6.1-6.1-6.1-16.1,0-22.2c6.1-6.1,16.1-6.1,22.2,0l0,0
					c6.1,6.1,6.1,16.1,0,22.2C77.4,42.1,73.4,43.6,69.3,43.6z M69.3,15.2c-3.3,0-6.5,1.2-9,3.7c-5,5-5,13,0,18s13,5,18,0s5-13,0-18
					C75.9,16.4,72.6,15.2,69.3,15.2z"/>
			</g>
		</g>
		<g>
			<circle class="st2" cx="11.7" cy="27.7" r="4.8"/>
			<path class="st1" d="M11.7,22.9c2.7,0,4.8,2.1,4.8,4.8c0,2.7-2.1,4.8-4.8,4.8s-4.8-2.1-4.8-4.8C6.9,25.1,9,22.9,11.7,22.9
				 M11.7,19.9c-4.3,0-7.8,3.5-7.8,7.8s3.5,7.8,7.8,7.8s7.8-3.5,7.8-7.8S16,19.9,11.7,19.9L11.7,19.9z"/>
		</g>
	</g>
</g>
</svg>
