<?xml version="1.0" encoding="utf-8"?>
<!-- Generator: Adobe Illustrator 22.0.1, SVG Export Plug-In . SVG Version: 6.00 Build 0)  -->
<svg version="1.1" xmlns="http://www.w3.org/2000/svg" xmlns:xlink="http://www.w3.org/1999/xlink" x="0px" y="0px"
	 viewBox="0 0 100 80" style="enable-background:new 0 0 100 80;" xml:space="preserve">
<style type="text/css">
	.st0{fill:#005072;}
	.st1{fill:#FFFFFF;}
	.st2{fill:#F5D700;}
</style>
<g id="Layer_1">
</g>
<g id="home">
	<g>
		<path class="st0" d="M49.3,75c-19.1,0-34.7-15.5-34.7-34.7S30.2,5.6,49.3,5.6c19.1,0,34.7,15.5,34.7,34.7S68.4,75,49.3,75z
			 M49.3,8.6c-17.5,0-31.7,14.2-31.7,31.7C17.6,57.8,31.8,72,49.3,72c17.5,0,31.7-14.2,31.7-31.7S66.7,8.6,49.3,8.6z"/>
		<path class="st0" d="M49.3,69.3c-16,0-29-13-29-29c0-16,13-29,29-29c16,0,29,13,29,29C78.3,56.3,65.3,69.3,49.3,69.3z M49.3,14.3
			c-14.3,0-26,11.7-26,26c0,14.3,11.7,26,26,26c14.3,0,26-11.7,26-26C75.3,26,63.6,14.3,49.3,14.3z"/>
		<g>
			<g>
				<path class="st0" d="M32,49.3l-2.4-1.8l3.8-5.2c0.4-0.6,1.2-0.8,1.9-0.5l5.7,2.8l-1.3,2.7L35.1,45L32,49.3z"/>
				<path class="st0" d="M66.9,49.3l-3-4.2l-4.6,2.2L58,44.6l5.7-2.8c0.7-0.3,1.4-0.1,1.9,0.5l3.8,5.2L66.9,49.3z"/>
			</g>
			<g>
				<path class="st0" d="M49.5,59.2c-8.9,0-16.1-7.2-16.1-16.1h3c0,7.2,5.9,13.1,13.1,13.1c7.2,0,13.1-5.9,13.1-13.1h3
					C65.6,51.9,58.4,59.2,49.5,59.2z"/>
				<path class="st0" d="M49.5,30.5c-2.9,0-5.3-2.4-5.3-5.3c0-2.9,2.4-5.3,5.3-5.3c2.9,0,5.3,2.4,5.3,5.3
					C54.8,28.1,52.4,30.5,49.5,30.5z M49.5,22.8c-1.3,0-2.3,1-2.3,2.3c0,1.3,1,2.3,2.3,2.3c1.3,0,2.3-1,2.3-2.3
					C51.8,23.9,50.8,22.8,49.5,22.8z"/>
				<rect x="43.8" y="35.7" class="st0" width="11.5" height="3"/>
				<rect x="48" y="31.8" class="st0" width="3" height="25.8"/>
			</g>
		</g>
		<g>
			<g>
				<g>
					<circle class="st2" cx="27.9" cy="20.4" r="4.8"/>
					<path class="st1" d="M27.9,15.6c1.2,0,2.5,0.5,3.4,1.4c1.9,1.9,1.9,4.9,0,6.8c-0.9,0.9-2.2,1.4-3.4,1.4s-2.5-0.5-3.4-1.4
						c-1.9-1.9-1.9-4.9,0-6.8C25.4,16.1,26.7,15.6,27.9,15.6 M27.9,12.6c-2.1,0-4,0.8-5.5,2.3c-1.5,1.5-2.3,3.4-2.3,5.5
						s0.8,4,2.3,5.5c1.5,1.5,3.4,2.3,5.5,2.3s4-0.8,5.5-2.3c1.5-1.5,2.3-3.4,2.3-5.5s-0.8-4-2.3-5.5C31.9,13.4,30,12.6,27.9,12.6
						L27.9,12.6z"/>
				</g>
			</g>
			<g>
				<g>
					<path class="st2" d="M74,66.5c-1.9,1.9-4.9,1.9-6.8,0c-1.9-1.9-1.9-4.9,0-6.8s4.9-1.9,6.8,0C75.9,61.6,75.9,64.6,74,66.5z"/>
					<path class="st1" d="M70.6,58.3c1.2,0,2.5,0.5,3.4,1.4c1.9,1.9,1.9,4.9,0,6.8c-0.9,0.9-2.2,1.4-3.4,1.4s-2.5-0.5-3.4-1.4
						c-1.9-1.9-1.9-4.9,0-6.8C68.2,58.8,69.4,58.3,70.6,58.3 M70.6,55.3c-2.1,0-4,0.8-5.5,2.3c-1.5,1.5-2.3,3.4-2.3,5.5
						c0,2.1,0.8,4,2.3,5.5c1.5,1.5,3.4,2.3,5.5,2.3s4-0.8,5.5-2.3c1.5-1.5,2.3-3.4,2.3-5.5c0-2.1-0.8-4-2.3-5.5
						C74.7,56.1,72.7,55.3,70.6,55.3L70.6,55.3z"/>
				</g>
			</g>
		</g>
	</g>
</g>
</svg>
