<?xml version="1.0" encoding="utf-8"?>
<!-- Generator: Adobe Illustrator 22.0.1, SVG Export Plug-In . SVG Version: 6.00 Build 0)  -->
<svg version="1.1" xmlns="http://www.w3.org/2000/svg" xmlns:xlink="http://www.w3.org/1999/xlink" x="0px" y="0px"
	 viewBox="0 0 100 80" style="enable-background:new 0 0 100 80;" xml:space="preserve">
<style type="text/css">
	.st0{fill:#005072;}
	.st1{fill:#FFFFFF;}
	.st2{fill:#F5D700;}
</style>
<g id="Layer_1">
</g>
<g id="home">
	<g>
		<path class="st0" d="M50,62.6c-0.6,0-1.1-0.3-1.3-0.8c-0.6-1.2-14.8-29-14.8-37.4c0-8.9,7.3-16.2,16.2-16.2s16.2,7.3,16.2,16.2
			c0,8.4-14.2,36.2-14.8,37.4C51.1,62.3,50.6,62.6,50,62.6z M50,11.3c-7.3,0-13.2,5.9-13.2,13.2c0,5.7,8.6,24.1,13.2,33.4
			c4.6-9.3,13.2-27.6,13.2-33.4C63.2,17.2,57.3,11.3,50,11.3z"/>
		<circle class="st2" cx="50" cy="24.1" r="4.8"/>
		<path class="st0" d="M76.2,71.7H23.8c-0.8,0-1.5-0.7-1.5-1.5V49.9c0-0.8,0.7-1.5,1.5-1.5H38v3H25.3v17.4h49.4V51.4H62v-3h14.2
			c0.8,0,1.5,0.7,1.5,1.5v20.4C77.7,71.1,77,71.7,76.2,71.7z"/>
	</g>
</g>
</svg>
