<?xml version="1.0" encoding="utf-8"?>
<!-- Generator: Adobe Illustrator 22.0.1, SVG Export Plug-In . SVG Version: 6.00 Build 0)  -->
<svg version="1.1" xmlns="http://www.w3.org/2000/svg" xmlns:xlink="http://www.w3.org/1999/xlink" x="0px" y="0px"
	 viewBox="0 0 100 80" style="enable-background:new 0 0 100 80;" xml:space="preserve">
<style type="text/css">
	.st0{fill:#005072;}
	.st1{fill:#FFFFFF;}
	.st2{fill:#F5D700;}
</style>
<g id="Layer_1">
</g>
<g id="home">
	<g>
		<g>
			<g>
				<path class="st0" d="M89.6,55.6H36.1c-0.8,0-1.5-0.7-1.5-1.5V22.7h3v29.9h50.5V22.7h3v31.4C91.1,54.9,90.4,55.6,89.6,55.6z"/>
				<rect x="41" y="22.3" class="st0" width="43.8" height="3"/>
			</g>
			<g>
				<rect x="42.9" y="28.2" class="st0" width="3" height="21.6"/>
				<rect x="50.3" y="28.2" class="st0" width="3" height="21.6"/>
				<rect x="57.7" y="28.2" class="st0" width="3" height="21.6"/>
				<rect x="65" y="28.2" class="st0" width="3" height="21.6"/>
				<rect x="72.4" y="28.2" class="st0" width="3" height="21.6"/>
				<rect x="79.8" y="28.2" class="st0" width="3" height="21.6"/>
			</g>
		</g>
		<g>
			<g>
				<circle class="st2" cx="88.7" cy="24" r="4.8"/>
				<path class="st1" d="M88.7,19.2c2.7,0,4.8,2.1,4.8,4.8c0,2.7-2.1,4.8-4.8,4.8c-2.7,0-4.8-2.1-4.8-4.8
					C83.9,21.3,86.1,19.2,88.7,19.2 M88.7,16.2c-4.3,0-7.8,3.5-7.8,7.8c0,4.3,3.5,7.8,7.8,7.8c4.3,0,7.8-3.5,7.8-7.8
					C96.5,19.7,93,16.2,88.7,16.2L88.7,16.2z"/>
			</g>
		</g>
		<rect x="25.6" y="60.8" class="st0" width="67.1" height="3"/>
		<g>
			<rect x="20.1" y="23.4" class="st0" width="11.1" height="3"/>
			<rect x="14" y="49.5" class="st0" width="17.2" height="3"/>
			<rect x="3.5" y="35.1" class="st0" width="27.7" height="3"/>
		</g>
	</g>
</g>
</svg>
