<?xml version="1.0" encoding="utf-8"?>
<!-- Generator: Adobe Illustrator 22.0.1, SVG Export Plug-In . SVG Version: 6.00 Build 0)  -->
<svg version="1.1" xmlns="http://www.w3.org/2000/svg" xmlns:xlink="http://www.w3.org/1999/xlink" x="0px" y="0px"
	 viewBox="0 0 100 80" style="enable-background:new 0 0 100 80;" xml:space="preserve">
<style type="text/css">
	.st0{fill:#005072;}
	.st1{fill:#FFFFFF;}
	.st2{fill:#F5D700;}
</style>
<g id="Layer_1">
</g>
<g id="home">
	<g>
		<g>
			<path class="st0" d="M39,69.7H13.9c-0.8,0-1.5-0.7-1.5-1.5V4.7c0-0.8,0.7-1.5,1.5-1.5H68c0.8,0,1.5,0.7,1.5,1.5v29.9h-3V6.2H15.4
				v60.6H39V69.7z"/>
			<path class="st0" d="M33.2,60.2H22c-0.8,0-1.5-0.7-1.5-1.5V10.5h3v46.7h9.7V60.2z"/>
			<rect x="58.4" y="10.5" class="st0" width="3" height="21.1"/>
			<path class="st0" d="M52.1,12.8H29.8c-0.8,0-1.5-0.7-1.5-1.5V4.8h3v4.9h19.3V4.8h3v6.4C53.6,12.1,52.9,12.8,52.1,12.8z"/>
		</g>
		<path class="st0" d="M61.3,76.8c-10.9,0-19.7-8.8-19.7-19.7c0-10.9,8.8-19.7,19.7-19.7c10.9,0,19.7,8.8,19.7,19.7
			C81,68,72.2,76.8,61.3,76.8z M61.3,40.5c-9.2,0-16.7,7.5-16.7,16.7s7.5,16.7,16.7,16.7c9.2,0,16.7-7.5,16.7-16.7
			S70.5,40.5,61.3,40.5z"/>
		<path class="st0" d="M61.3,62.9c-0.4,0-0.8-0.2-1.1-0.4L49.7,51.9l2.1-2.1l9.4,9.4l20.2-25l2.3,1.9L62.5,62.4
			C62.2,62.7,61.8,62.9,61.3,62.9C61.4,62.9,61.4,62.9,61.3,62.9z"/>
		<g>
			<g>
				<circle class="st2" cx="43.2" cy="57.2" r="5.4"/>
				<path class="st1" d="M43.2,51.8c3,0,5.4,2.4,5.4,5.4c0,3-2.4,5.4-5.4,5.4s-5.4-2.4-5.4-5.4C37.8,54.2,40.2,51.8,43.2,51.8
					 M43.2,49.1c-4.4,0-8.1,3.6-8.1,8.1s3.6,8.1,8.1,8.1c4.4,0,8.1-3.6,8.1-8.1S47.6,49.1,43.2,49.1L43.2,49.1z"/>
			</g>
			<g>
				<path class="st2" d="M84.9,57.2c0,3-2.4,5.4-5.4,5.4c-3,0-5.4-2.4-5.4-5.4c0-3,2.4-5.4,5.4-5.4C82.5,51.8,84.9,54.2,84.9,57.2z"
					/>
				<path class="st1" d="M79.5,51.8c3,0,5.4,2.4,5.4,5.4c0,3-2.4,5.4-5.4,5.4c-3,0-5.4-2.4-5.4-5.4C74.2,54.2,76.6,51.8,79.5,51.8
					 M79.5,49.1c-4.4,0-8.1,3.6-8.1,8.1s3.6,8.1,8.1,8.1c4.4,0,8.1-3.6,8.1-8.1S84,49.1,79.5,49.1L79.5,49.1z"/>
			</g>
		</g>
	</g>
</g>
</svg>
