<?xml version="1.0" encoding="utf-8"?>
<!-- Generator: Adobe Illustrator 22.0.1, SVG Export Plug-In . SVG Version: 6.00 Build 0)  -->
<svg version="1.1" xmlns="http://www.w3.org/2000/svg" xmlns:xlink="http://www.w3.org/1999/xlink" x="0px" y="0px"
	 viewBox="0 0 100 80" style="enable-background:new 0 0 100 80;" xml:space="preserve">
<style type="text/css">
	.st0{fill:#005072;}
	.st1{fill:#FFFFFF;}
	.st2{fill:#F5D700;}
</style>
<g id="Layer_1">
</g>
<g id="home">
	<g>
		<g>
			<g>
				<polyline class="st1" points="56.1,70.2 14.1,70.2 14.1,20.4 29,6.8 68.2,6.8 68.2,33.2 				"/>
				<path class="st0" d="M56.1,71.7h-42c-0.8,0-1.5-0.7-1.5-1.5V20.4c0-0.4,0.2-0.8,0.5-1.1L28,5.7c0.3-0.3,0.6-0.4,1-0.4h39.2
					c0.8,0,1.5,0.7,1.5,1.5v26.3h-3V8.3H29.6l-14,12.7v47.7h40.5V71.7z"/>
			</g>
			<g>
				<polyline class="st1" points="20,24.4 32.8,24.4 32.8,11.6 				"/>
				<path class="st0" d="M32.8,25.9H20v-3h11.3V11.6h3v12.8C34.3,25.2,33.6,25.9,32.8,25.9z"/>
			</g>
			<g>
				<rect x="20.6" y="33.4" class="st0" width="41" height="3"/>
			</g>
			<g>
				<rect x="42.4" y="21.2" class="st0" width="19.2" height="3"/>
			</g>
			<g>
				<rect x="20.6" y="45.6" class="st0" width="30.2" height="3"/>
			</g>
			<g>
				<rect x="20.6" y="57.8" class="st0" width="20.2" height="3"/>
			</g>
		</g>
		<g>
			<polygon class="st1" points="68.2,40.2 50.4,61.7 62.7,61.7 62.7,78.4 73.6,78.4 73.6,61.7 85.9,61.7 			"/>
			<path class="st0" d="M73.6,79.9H62.7c-0.8,0-1.5-0.7-1.5-1.5V63.2H50.4c-0.6,0-1.1-0.3-1.4-0.9c-0.2-0.5-0.2-1.1,0.2-1.6L67,39.2
				c0.6-0.7,1.7-0.7,2.3,0l17.7,21.6c0.4,0.4,0.4,1.1,0.2,1.6c-0.2,0.5-0.8,0.9-1.4,0.9H75.1v15.2C75.1,79.2,74.5,79.9,73.6,79.9z
				 M64.2,76.9h7.9V61.7c0-0.8,0.7-1.5,1.5-1.5h9.1L68.2,42.5L53.6,60.2h9.1c0.8,0,1.5,0.7,1.5,1.5V76.9z"/>
		</g>
		<g>
			<circle class="st2" cx="68.2" cy="7.9" r="4.8"/>
			<path class="st1" d="M68.2,3.1c2.7,0,4.8,2.1,4.8,4.8s-2.1,4.8-4.8,4.8c-2.7,0-4.8-2.1-4.8-4.8S65.5,3.1,68.2,3.1 M68.2,0.1
				c-4.3,0-7.8,3.5-7.8,7.8s3.5,7.8,7.8,7.8S76,12.2,76,7.9S72.5,0.1,68.2,0.1L68.2,0.1z"/>
		</g>
	</g>
</g>
</svg>
